# xmcd
#
# Track frame offsets:
#	150
#	14206
#	23086
#	37020
#	49606
#	64057
#	74055
#	85593
#	99558
#	113704
#	127780
#	140189
#
# Disc length: 1998 seconds
#
# Revision: 0
# Processed by: cddbd v1.5.1PL0 Copyright (c) Steve Scherf et al.
# Submitted via: dBpowerAMP V4.0
#
DISCID=a807cc0c
DTITLE=Miguel y Miguel - Sabiendo quien era yo
DYEAR=2003
DGENRE=Norteña
TTITLE0=A la sombra de un nogal
TTITLE1=Tu Hipocresia
TTITLE2=La del Estribo
TTITLE3=Donde estara mi caballo
TTITLE4=cuatro cantinas
TTITLE5=Estamos en paz
TTITLE6=Sabiendo quien era yo
TTITLE7=Juzgame Dios
TTITLE8=Pecho de Roca
TTITLE9=Amancio Garza
TTITLE10=Lupita
TTITLE11=No debemos callar
EXTD=
EXTT0=
EXTT1=
EXTT2=
EXTT3=
EXTT4=
EXTT5=
EXTT6=
EXTT7=
EXTT8=
EXTT9=
EXTT10=
EXTT11=
PLAYORDER=
